<?xml version="1.0" encoding="UTF-8"?>
<svg width="63px" height="63px" viewBox="0 0 63 63" version="1.1" xmlns="http://www.w3.org/2000/svg" xmlns:xlink="http://www.w3.org/1999/xlink">
    <!-- Generator: Sketch 53.2 (72643) - https://sketchapp.com -->
    <title>Group 5</title>
    <desc>Created with Sketch.</desc>
    <g id="design" stroke="none" stroke-width="1" fill="none" fill-rule="evenodd">
        <g id="Desktop-HD" transform="translate(-1904.000000, -640.000000)" fill="#6CC24A">
            <g id="Full-Screen-Header" transform="translate(659.000000, 120.000000)">
                <g id="Sean-#3">
                    <g id="Video-CTA-#1" transform="translate(995.000000, 520.000000)">
                        <g id="Group-5" transform="translate(250.000000, 0.000000)">
                            <path d="M23.7322699,60.4044944 C23.7322699,61.8455962 25.0258368,63 26.4662273,63 L36.5337727,63 C37.9716318,63 39.2677301,61.8455962 39.2677301,60.4044944 L39.2677301,39.3562885 L60.4103347,39.3562885 C61.8481938,39.3562885 63,38.0598043 63,36.6187024 L63,26.5259152 C63,25.0848133 61.8481938,23.7883291 60.4103347,23.7883291 L39.2677301,23.7883291 L39.2677301,2.59550562 C39.2677301,1.15440377 37.9716318,0 36.5337727,0 L26.4662273,0 C25.0258368,0 23.7322699,1.15440377 23.7322699,2.59550562 L23.7322699,23.7883291 L2.73142605,23.7883291 C1.29356692,23.7883291 0,25.0848133 0,26.5259152 L0,36.6187024 C0,38.0598043 1.29356692,39.3562885 2.73142605,39.3562885 L23.7322699,39.3562885 L23.7322699,60.4044944 Z" id="Fill-1"></path>
                        </g>
                    </g>
                </g>
            </g>
        </g>
    </g>
</svg>