<svg viewBox="0 0 169 53" xmlns="http://www.w3.org/2000/svg"><g fill="#0047BB" fill-rule="evenodd"><path d="M72.925 7.616c1.891 0 3.699.737 5.128 1.959.168.168.19.42.021.59l-1.303 1.369c-.168.168-.358.168-.547 0a4.755 4.755 0 0 0-3.173-1.222c-2.627 0-4.708 2.253-4.708 4.886 0 2.612 2.08 4.823 4.73 4.823 1.176 0 2.08-.358 2.5-.526v-1.79h-1.682c-.23 0-.399-.17-.399-.38v-1.663c0-.232.168-.4.4-.4h4.035c.21 0 .378.188.378.4v5.392a.404.404 0 0 1-.168.336s-2.165 1.37-5.212 1.37a7.503 7.503 0 0 1-7.546-7.541c0-4.212 3.363-7.603 7.546-7.603M85.176 8.227c0-.211.19-.4.4-.4h1.954c.21 0 .4.189.4.4V22.17c0 .21-.19.4-.4.4h-1.955a.414.414 0 0 1-.399-.4V8.227zM95.537 8.227c0-.211.168-.4.399-.4h1.934c.21 0 .399.189.399.4v11.816h5.36a.4.4 0 0 1 .4.4v1.727a.4.4 0 0 1-.4.4h-7.693a.4.4 0 0 1-.399-.4V8.227zM115.187 20.085c1.051 0 1.892-.822 1.892-1.917 0-1.053-1.05-1.832-2.144-1.832h-2.291v3.749h2.543zm-.294-6.066c1.071 0 1.807-.843 1.807-1.895 0-1.054-.736-1.791-1.807-1.791h-2.25v3.686h2.25zm-4.96-5.792a.4.4 0 0 1 .399-.4h4.813c2.501 0 4.435 1.685 4.435 3.896 0 1.622-1.324 2.886-2.312 3.348 1.114.359 2.732 1.497 2.732 3.434 0 2.359-2.017 4.065-4.582 4.065h-5.086a.4.4 0 0 1-.4-.4V8.227zM126.683 8.227c0-.211.167-.4.398-.4h8.555a.4.4 0 0 1 .4.4v1.727a.4.4 0 0 1-.4.4h-6.222v3.454h5.191c.21 0 .4.19.4.4v1.749a.4.4 0 0 1-.4.4h-5.19v3.686h6.22c.231 0 .4.189.4.4v1.727a.4.4 0 0 1-.4.4h-8.554a.4.4 0 0 1-.398-.4V8.227zM149.001 14.545c1.114 0 2.081-.968 2.081-2.148 0-1.116-.967-2.043-2.08-2.043h-3.427v4.191h3.426zm-6.178-6.318c0-.211.167-.4.398-.4h6.011c2.523 0 4.582 2.022 4.582 4.528 0 1.937-1.282 3.518-3.11 4.255l2.88 5.35c.146.273 0 .61-.358.61h-2.208a.36.36 0 0 1-.335-.19l-2.796-5.581h-2.332v5.37c0 .211-.19.401-.4.401h-1.934a.4.4 0 0 1-.398-.4V8.227zM162.577 10.354h-3.216a.4.4 0 0 1-.399-.4V8.227c0-.211.168-.4.399-.4h9.185a.4.4 0 0 1 .4.4v1.727a.4.4 0 0 1-.4.4h-3.216V22.17c0 .21-.19.4-.4.4h-1.954a.414.414 0 0 1-.399-.4V10.354zM69.814 38.765h-3.237c-.21 0-.4-.19-.4-.4v-.885c0-.21.19-.4.4-.4h3.237v-3.265c0-.21.19-.379.4-.379h.882c.21 0 .4.168.4.38v3.263h3.236c.21 0 .379.19.379.401v.885c0 .21-.168.4-.379.4h-3.236v3.222c0 .211-.19.38-.4.38h-.883c-.21 0-.399-.169-.399-.38v-3.222zM84.441 32.994h-3.216a.4.4 0 0 1-.4-.4v-1.727a.4.4 0 0 1 .4-.4h9.185a.4.4 0 0 1 .4.4v1.726a.4.4 0 0 1-.4.4h-3.216V44.81c0 .21-.19.4-.399.4H84.84a.414.414 0 0 1-.399-.4V32.994zM103.124 42.682c2.649 0 4.834-2.17 4.834-4.823 0-2.654-2.185-4.865-4.834-4.865-2.647 0-4.813 2.211-4.813 4.865 0 2.653 2.166 4.823 4.813 4.823m0-12.427c4.204 0 7.567 3.392 7.567 7.604a7.525 7.525 0 0 1-7.567 7.561c-4.203 0-7.545-3.349-7.545-7.561s3.342-7.604 7.545-7.604M122.48 42.725c1.05 0 1.891-.822 1.891-1.917 0-1.053-1.05-1.833-2.143-1.833h-2.292v3.75h2.543zm-.294-6.067c1.07 0 1.806-.842 1.806-1.895s-.735-1.79-1.806-1.79h-2.25v3.685h2.25zm-4.96-5.791a.4.4 0 0 1 .399-.4h4.813c2.501 0 4.435 1.684 4.435 3.895 0 1.623-1.325 2.887-2.313 3.35 1.114.357 2.732 1.495 2.732 3.432 0 2.36-2.017 4.066-4.581 4.066h-5.086a.4.4 0 0 1-.4-.4V30.866zM133.975 30.867c0-.212.19-.4.399-.4h1.954c.21 0 .4.188.4.4v13.942c0 .21-.19.4-.4.4h-1.954c-.21 0-.4-.19-.4-.4V30.867zM144.336 30.635c0-.211.189-.38.399-.38h.525l8.743 9.31h.022v-8.698a.4.4 0 0 1 .4-.4h1.932c.21 0 .4.188.4.4V45.04c0 .21-.19.38-.4.38h-.504l-8.785-9.668h-.022v9.056a.4.4 0 0 1-.398.4h-1.913a.414.414 0 0 1-.4-.4V30.635zM36.339 22.088l-20.99.01c-.57 0-1.033.463-1.033 1.036v5.127c0 .572.463 1.036 1.035 1.036h6.9v13.334c0 .494.349.92.833 1.017l2.877.558a.518.518 0 0 1-.109 1.02v.001h-.007l-.13-.002a18.671 18.671 0 0 1-3.59-.372v.003c-.09-.019-.18-.042-.271-.062a18.733 18.733 0 0 1-1.059-.264c-.072-.02-.146-.04-.218-.062a15.614 15.614 0 0 1-.66-.208 18.587 18.587 0 0 1-.683-.245l-.1-.038a18.654 18.654 0 0 1-2.011-.92l-.04-.021c-.078-.042-.157-.082-.235-.125l.004-.004a18.787 18.787 0 0 1-5.127-4.156 18.724 18.724 0 0 1-4.56-12.243c0-10.296 8.415-18.677 18.68-18.72V.608h-.308C11.457.775 0 12.393 0 26.508c0 14.28 11.594 25.9 25.846 25.9.878 0 1.771-.047 2.657-.138.53-.055.935-.498.935-1.032V29.293l6.9.004c.572 0 1.035-.464 1.035-1.036v-5.137c0-.572-.463-1.036-1.034-1.036M51.198 52.376h.983V.61h-.983z"/></g></svg>